<svg width="16" height="18" viewBox="0 0 16 18" fill="none" xmlns="http://www.w3.org/2000/svg">
<path d="M7.99992 0.916687C10.3011 0.916687 12.1666 2.78217 12.1666 5.08335H12.2117C13.3261 5.08335 13.7302 5.19939 14.1376 5.41727C14.5451 5.63515 14.8648 5.95489 15.0827 6.3623C15.3006 6.7697 15.4166 7.17381 15.4166 8.28821V12.362C15.4166 14.1029 15.2329 14.7466 14.8879 15.3917C14.5429 16.0368 14.0367 16.543 13.3916 16.888C12.7465 17.233 12.1028 17.4167 10.3619 17.4167H5.63796C3.89707 17.4167 3.25331 17.233 2.60824 16.888C1.96318 16.543 1.45693 16.0368 1.11195 15.3917C0.766969 14.7466 0.583252 14.1029 0.583252 12.362V8.28821C0.583252 7.17381 0.699284 6.7697 0.917168 6.3623C1.13505 5.95489 1.45479 5.63515 1.86219 5.41727C2.2696 5.19939 2.67371 5.08335 3.78811 5.08335H3.83325C3.83325 2.78217 5.69873 0.916687 7.99992 0.916687ZM12.3723 6.584L3.78811 6.58335C2.99853 6.58335 2.78558 6.62448 2.56959 6.73999C2.42359 6.81807 2.31797 6.92369 2.23989 7.06969C2.12437 7.28569 2.08325 7.49864 2.08325 8.28821V12.362C2.08325 13.7245 2.17536 14.1994 2.43467 14.6843C2.63986 15.068 2.93198 15.3601 3.31564 15.5653C3.80052 15.8246 4.27545 15.9167 5.63796 15.9167H10.3619C11.7244 15.9167 12.1993 15.8246 12.6842 15.5653C13.0679 15.3601 13.36 15.068 13.5652 14.6843C13.8245 14.1994 13.9166 13.7245 13.9166 12.362V8.28821C13.9166 7.49864 13.8755 7.28569 13.7599 7.06969C13.6819 6.92369 13.5762 6.81807 13.4302 6.73999C13.2297 6.63273 13.0317 6.58961 12.3723 6.584ZM11.2883 7.50002C11.4594 7.50002 11.5783 7.52903 11.6802 7.5835C11.782 7.63797 11.862 7.7179 11.9164 7.81976C11.9709 7.92161 11.9999 8.04055 11.9999 8.21168V8.28836C11.9999 8.45949 11.9709 8.57843 11.9164 8.68028C11.862 8.78214 11.782 8.86207 11.6802 8.91654C11.5783 8.97101 11.4594 9.00002 11.2883 9.00002H11.2116C11.0404 9.00002 10.9215 8.97101 10.8197 8.91654C10.7178 8.86207 10.6379 8.78214 10.5834 8.68028C10.5289 8.57843 10.4999 8.45949 10.4999 8.28836V8.21168C10.4999 8.04055 10.5289 7.92161 10.5834 7.81976C10.6379 7.7179 10.7178 7.63797 10.8197 7.5835C10.9215 7.52903 11.0404 7.50002 11.2116 7.50002H11.2883ZM4.6216 7.50002C4.79273 7.50002 4.91166 7.52903 5.01352 7.5835C5.11537 7.63797 5.1953 7.7179 5.24977 7.81976C5.30424 7.92161 5.33325 8.04055 5.33325 8.21168V8.28836C5.33325 8.45949 5.30424 8.57843 5.24977 8.68028C5.1953 8.78214 5.11537 8.86207 5.01352 8.91654C4.91166 8.97101 4.79273 9.00002 4.6216 9.00002H4.54491C4.37378 9.00002 4.25484 8.97101 4.15299 8.91654C4.05114 8.86207 3.9712 8.78214 3.91673 8.68028C3.86226 8.57843 3.83325 8.45949 3.83325 8.28836V8.21168C3.83325 8.04055 3.86226 7.92161 3.91673 7.81976C3.9712 7.7179 4.05114 7.63797 4.15299 7.5835C4.25484 7.52903 4.37378 7.50002 4.54491 7.50002H4.6216ZM7.99992 2.41669C6.52716 2.41669 5.33325 3.61059 5.33325 5.08335H10.6666C10.6666 3.61059 9.47268 2.41669 7.99992 2.41669Z" fill="#8491A5"/>
</svg>
