<svg width="24" height="24" viewBox="0 0 24 24" fill="none" xmlns="http://www.w3.org/2000/svg">
<g opacity="0.9">
<path d="M16.2188 3.07492C13.8188 3.88117 11.8031 4.58429 11.7375 4.62179C11.6813 4.66867 11.625 4.79992 11.625 4.92179C11.625 5.43742 11.7469 5.40929 16.3125 3.89054C18.7031 3.09367 20.6813 2.46554 20.7188 2.48429C20.7563 2.50304 20.9813 3.12179 21.2344 3.84367C21.675 5.15617 21.8438 5.40929 22.1625 5.28742C22.4531 5.17492 22.4156 4.81867 21.9375 3.42179C21.4406 1.95929 21.2063 1.58429 20.7844 1.60304C20.6719 1.60304 18.6188 2.26867 16.2188 3.07492Z" fill="white"/>
<path d="M0.271875 6.27187L0 6.54375V12V17.4562L0.271875 17.7281L0.54375 18H12H23.4563L23.7281 17.7281L24 17.4562V12V6.54375L23.7281 6.27187L23.4563 6H15.0563C7.55625 6 6.65625 6.01875 6.525 6.15C6.31875 6.34687 6.3375 6.525 6.58125 6.69375C6.74063 6.80625 7.05 6.84375 7.95 6.84375H9.1125L8.60625 7.25625C7.28438 8.33437 6.38438 10.2562 6.38438 12C6.38438 13.7437 7.28438 15.6656 8.60625 16.7437L9.1125 17.1562H4.97813H0.84375V12V6.84375H2.82188C4.00313 6.84375 4.86563 6.80625 4.97813 6.75C5.175 6.6375 5.2125 6.28125 5.04375 6.1125C4.95938 6.02812 4.32188 6 2.7375 6H0.54375L0.271875 6.27187ZM13.3406 7.03125C16.2656 7.94062 17.6813 11.6625 16.1719 14.5219C15.2813 16.2 13.7719 17.1562 12 17.1562C10.2281 17.1562 8.71875 16.2 7.82813 14.5219C6.3375 11.6906 7.67813 8.05312 10.575 7.05937C11.4 6.77812 12.4875 6.76875 13.3406 7.03125ZM23.1562 12V17.1562H19.0219H14.8875L15.3938 16.7437C16.3125 15.9937 17.0719 14.8125 17.4 13.5844C17.625 12.7781 17.625 11.2219 17.4 10.4156C17.0719 9.1875 16.3125 8.00625 15.3938 7.25625L14.8875 6.84375H19.0219H23.1562V12Z" fill="white"/>
<path d="M11.6532 8.62491C11.6251 8.72803 11.4657 8.84991 11.2876 8.90616C10.1438 9.29053 9.66569 10.7062 10.3688 11.6062C10.5188 11.7937 10.8657 12.0562 11.1376 12.1874L11.6251 12.4218V13.378C11.6251 14.0062 11.5876 14.3437 11.5219 14.3437C11.3344 14.3437 10.8751 13.7999 10.8188 13.5093C10.7438 13.153 10.5751 13.003 10.2938 13.0499C10.1157 13.0687 10.0688 13.1437 10.0501 13.4249C9.99381 14.0718 10.5751 14.8593 11.2876 15.0937C11.4657 15.1499 11.6251 15.2718 11.6532 15.3749C11.7188 15.6374 12.2813 15.6374 12.3469 15.3749C12.3751 15.2718 12.5344 15.1499 12.7126 15.0937C13.4157 14.8593 13.9688 14.1187 13.9688 13.4062C13.9688 12.6937 13.4157 11.953 12.7032 11.7187L12.3751 11.6062V10.6312C12.3751 9.99366 12.4126 9.65616 12.4782 9.65616C12.6657 9.65616 13.1251 10.1999 13.1813 10.4905C13.2563 10.8468 13.4251 10.9968 13.7063 10.9499C13.8844 10.9312 13.9313 10.8562 13.9501 10.5749C14.0063 9.92803 13.4251 9.14053 12.7126 8.90616C12.5344 8.84991 12.3751 8.72803 12.3469 8.62491C12.3094 8.48428 12.2157 8.43741 12.0001 8.43741C11.7844 8.43741 11.6907 8.48428 11.6532 8.62491ZM11.6251 10.5937C11.6251 11.1093 11.5876 11.5312 11.5407 11.5312C11.4938 11.5312 11.3251 11.428 11.1751 11.2968C10.8188 10.9968 10.7251 10.603 10.9126 10.228C11.0532 9.96553 11.3907 9.65616 11.5501 9.65616C11.5969 9.65616 11.6251 10.078 11.6251 10.5937ZM12.8251 12.703C13.1813 13.003 13.2751 13.3968 13.0876 13.7718C12.9469 14.0343 12.6094 14.3437 12.4501 14.3437C12.4032 14.3437 12.3751 13.9218 12.3751 13.4062C12.3751 12.8905 12.4126 12.4687 12.4594 12.4687C12.5063 12.4687 12.6751 12.5718 12.8251 12.703Z" fill="white"/>
<path d="M20.1187 7.7438C19.9218 7.9313 19.9312 8.02505 20.1562 8.25005C20.3062 8.40005 20.4656 8.43755 20.9531 8.43755H21.5624V9.04692C21.5624 9.53442 21.5999 9.6938 21.7499 9.8438C21.9749 10.0688 22.0687 10.0782 22.2562 9.8813C22.3687 9.7688 22.4062 9.52505 22.4062 8.81255C22.4062 7.60317 22.3968 7.5938 21.1874 7.5938C20.475 7.5938 20.2312 7.6313 20.1187 7.7438Z" fill="white"/>
<path d="M21.7499 14.1563C21.5999 14.3063 21.5624 14.4656 21.5624 14.9531V15.5625H20.9531C20.4656 15.5625 20.3062 15.6 20.1562 15.75C19.9312 15.975 19.9218 16.0688 20.1187 16.2563C20.2312 16.3688 20.475 16.4062 21.1874 16.4062C22.3968 16.4062 22.4062 16.3969 22.4062 15.1875C22.4062 14.475 22.3687 14.2313 22.2562 14.1188C22.0687 13.9219 21.9749 13.9313 21.7499 14.1563Z" fill="white"/>
<path d="M1.74375 7.7438C1.52812 7.95005 1.52812 9.67505 1.74375 9.8813C1.93125 10.0782 2.025 10.0688 2.25 9.8438C2.4 9.6938 2.4375 9.53442 2.4375 9.04692V8.43755H3.04688C3.53438 8.43755 3.69375 8.40005 3.84375 8.25005C4.06875 8.02505 4.07813 7.9313 3.88125 7.7438C3.76875 7.6313 3.525 7.5938 2.8125 7.5938C2.1 7.5938 1.85625 7.6313 1.74375 7.7438Z" fill="white"/>
<path d="M1.74375 14.1188C1.52812 14.325 1.52812 16.05 1.74375 16.2563C1.95 16.4719 3.675 16.4719 3.88125 16.2563C4.07813 16.0688 4.06875 15.975 3.84375 15.75C3.69375 15.6 3.53438 15.5625 3.04688 15.5625H2.4375V14.9531C2.4375 14.4656 2.4 14.3063 2.25 14.1563C2.025 13.9313 1.93125 13.9219 1.74375 14.1188Z" fill="white"/>
<path d="M1.74375 18.8063C1.65938 18.8813 1.59375 19.0031 1.59375 19.0594C1.59375 19.125 1.80938 19.8188 2.07188 20.5969C2.55938 22.0594 2.775 22.4062 3.19688 22.4062C3.4125 22.4062 12.0938 19.5094 12.2625 19.3781C12.3188 19.3313 12.375 19.1906 12.375 19.0688C12.375 18.5625 12.2438 18.5906 7.67813 20.1094C5.2875 20.9063 3.30938 21.525 3.27188 21.4875C3.23438 21.45 3.00938 20.85 2.76562 20.1563C2.27813 18.7219 2.08125 18.4594 1.74375 18.8063Z" fill="white"/>
</g>
</svg>
